<svg xmlns="http://www.w3.org/2000/svg" viewBox="-0.5 -0.5 16 16" fill="none" stroke="currentColor" stroke-linecap="round" stroke-linejoin="round" class="feather feather-linkedin" id="Linkedin--Streamline-Feather.svg" height="16" width="16"><desc>Linkedin Streamline Icon: https://streamlinehq.com</desc><path d="M10.172749999999999 5.1613750000000005C12.3868125 5.1614375 14.1818125 6.956375 14.1818125 9.1704375V13.847750000000001H11.5090625V9.1704375C11.5090625 8.432437499999999 10.9108125 7.834124999999999 10.172749999999999 7.834124999999999C9.434687499999999 7.834124999999999 8.836375 8.432437499999999 8.836375 9.1704375V13.847750000000001H6.163625000000001V9.1704375C6.163625000000001 6.9563125 7.9585625 5.1613750000000005 10.172749999999999 5.1613750000000005Z" stroke-width="1"></path><path d="M0.8181875 5.8295625H3.490875V13.847750000000001H0.8181875Z" stroke-width="1"></path><path d="M0.8181875 2.488625C0.8181875 3.517375 1.9318125 4.1603125 2.82275 3.6459375C3.2361875 3.40725 3.490875 2.9660625 3.490875 2.488625C3.490875 1.4598749999999998 2.37725 0.8169375 1.486375 1.3313125000000001C1.072875 1.57 0.8181875 2.0111875 0.8181875 2.488625" stroke-width="1"></path></svg>