<svg xmlns="http://www.w3.org/2000/svg" viewBox="-0.5 -0.5 16 16" id="Bars--Streamline-Font-Awesome.svg" height="16" width="16"><desc>Bars Streamline Icon: https://streamlinehq.com</desc><!--! Font Awesome Free 6.5.2 by @fontawesome - https://fontawesome.com License - https://fontawesome.com/license/free (Icons: CC BY 4.0, Fonts: SIL OFL 1.1, Code: MIT License) Copyright 2024 Fonticons, Inc.--><path d="M0.15000000000000002 2.25c0 -0.58078125 0.46921874999999996 -1.05 1.05 -1.05h12.6c0.58078125 0 1.05 0.46921874999999996 1.05 1.05s-0.46921874999999996 1.05 -1.05 1.05H1.2000000000000002c-0.58078125 0 -1.05 -0.46921874999999996 -1.05 -1.05Zm0 5.25c0 -0.58078125 0.46921874999999996 -1.05 1.05 -1.05h12.6c0.58078125 0 1.05 0.46921874999999996 1.05 1.05s-0.46921874999999996 1.05 -1.05 1.05H1.2000000000000002c-0.58078125 0 -1.05 -0.46921874999999996 -1.05 -1.05Zm14.700000000000001 5.25c0 0.58078125 -0.46921874999999996 1.05 -1.05 1.05H1.2000000000000002c-0.58078125 0 -1.05 -0.46921874999999996 -1.05 -1.05s0.46921874999999996 -1.05 1.05 -1.05h12.6c0.58078125 0 1.05 0.46921874999999996 1.05 1.05Z" stroke-width="1"></path></svg>